<?xml version="1.0" encoding="utf-8"?>
<!-- Generator: Adobe Illustrator 23.0.1, SVG Export Plug-In . SVG Version: 6.00 Build 0)  -->
<svg version="1.1"
	 id="svg3167" inkscape:version="0.92.4 (5da689c313, 2019-01-14)" xmlns:cc="http://creativecommons.org/ns#" xmlns:dc="http://purl.org/dc/elements/1.1/" xmlns:inkscape="http://www.inkscape.org/namespaces/inkscape" xmlns:rdf="http://www.w3.org/1999/02/22-rdf-syntax-ns#" xmlns:sodipodi="http://sodipodi.sourceforge.net/DTD/sodipodi-0.dtd" xmlns:svg="http://www.w3.org/2000/svg"
	 xmlns="http://www.w3.org/2000/svg" xmlns:xlink="http://www.w3.org/1999/xlink" x="0px" y="0px" viewBox="0 0 800 800"
	 style="enable-background:new 0 0 800 800;" xml:space="preserve">
<style type="text/css">
	.st0{opacity:0.1;clip-path:url(#SVGID_2_);}
	.st1{fill:#99CCFF;}
</style>
<sodipodi:namedview  bordercolor="#666666" borderopacity="1" gridtolerance="10" guidetolerance="10" id="namedview3169" inkscape:current-layer="g3175" inkscape:cx="406.77966" inkscape:cy="403.38983" inkscape:pageopacity="0" inkscape:pageshadow="2" inkscape:window-height="1018" inkscape:window-maximized="1" inkscape:window-width="1920" inkscape:window-x="-8" inkscape:window-y="-8" inkscape:zoom="0.90744565" objecttolerance="10" pagecolor="#ffffff" showgrid="false">
	</sodipodi:namedview>
<g id="g3175" transform="matrix(1.3333333,0,0,-1.3333333,0,800)" inkscape:groupmode="layer" inkscape:label="comb-and-scissors-publicdomainvectors.org">
	<g id="g3177">
		<g>
			<defs>
				<rect id="SVGID_1_" x="-100" y="-100" width="800" height="800"/>
			</defs>
			<clipPath id="SVGID_2_">
				<use xlink:href="#SVGID_1_"  style="overflow:visible;"/>
			</clipPath>
			<g id="g3179" class="st0">
				<path id="path3185" inkscape:connector-curvature="0" class="st1" d="M361.5,92.5c6-13.4-31.6-32.8-48.8-31.8
					c-3.8,0.2-6.7,1.4-7.8,3.9c-9.8,53.1-25.1,106.5-46.1,160.3c-51.7-29.1-111.9-63-121.6-68.6c-17.6-10-53.5-19.1-70.6-12.7
					l175.7,121.1c-0.6,1.4-1.2,2.8-1.9,4.2L72.2,152c1.4,10.1,28.2,33.9,53.3,50.3c10.9,7.1,71,48.1,110.9,73.3
					c-5,5.1-10.3,8.4-15.6,10.4c-21.4,8-43.4-5.2-49.7-8.8c-0.8-0.4-1.3-0.7-1.6-0.8c-3.7-1.3-5.4,3.1-3.9,4.8l4.8,2.4l50.6,24.9
					l-1.8,3.7l-51.2-25.2l-3-1.5c-1.1-0.6-2.5-0.1-3,1c-0.6,1.1-0.1,2.5,1,3l3.6,1.8l50.6,24.9l-1.8,3.7l-51.2-25.2l-3-1.5
					c-1.1-0.6-2.5-0.1-3,1c-0.6,1.1-0.1,2.5,1,3l2.8,1.4l51.4,25.3l-1.6,3.3L160.7,302l-3-1.5c-1.1-0.6-2.5-0.1-3,1
					c-0.6,1.1-0.1,2.5,1,3l3.6,1.8l50.6,24.9l-1.8,3.7l-51.2-25.2l-3-1.5c-1.1-0.6-2.5-0.1-3,1c-0.6,1.1-0.1,2.5,1,3l3.6,1.8
					l50.6,24.9l-1.8,3.7l-51.2-25.2l-3-1.5c-1.1-0.6-2.5-0.1-3,1c-0.6,1.1-0.1,2.5,1,3l2.8,1.4l51.4,25.3l-1.6,3.3l-51.2-25.2
					l-3-1.5c-1.1-0.6-2.5-0.1-3,1c-0.6,1.1-0.1,2.5,1,3l3.6,1.8l50.6,24.9l-1.8,3.7l-51.2-25.2l-3-1.5c-1.1-0.6-2.5-0.1-3,1
					c-0.6,1.1-0.1,2.5,1,3l3.6,1.8l50.6,24.9l-1.8,3.7l-51.2-25.2l-3-1.5c-1.1-0.6-2.5-0.1-3,1s-0.1,2.5,1,3l2.8,1.4l51.4,25.3
					l-1.6,3.3l-51.2-25.2l-3-1.5c-1.1-0.6-2.5-0.1-3,1c-0.6,1.1-0.1,2.5,1,3l3.6,1.8l50.6,24.9l-1.8,3.7l-51.2-25.2l-3-1.5
					c-1.1-0.6-2.5-0.1-3,1c-0.6,1.1-0.1,2.5,1,3l3.6,1.8l50.6,24.9l-1.8,3.7l-51.2-25.2l-3-1.5c-1.1-0.6-2.5-0.1-3,1
					c-0.6,1.1-0.1,2.5,1,3l2.8,1.4l51.4,25.3l-1.6,3.3L127,370.4l-3-1.5c-1.1-0.6-2.5-0.1-3,1c-0.6,1.1-0.1,2.5,1,3l3.6,1.8
					l50.6,24.9l-1.8,3.7l-51.2-25.2l-3-1.5c-1.1-0.6-2.5-0.1-3,1c-0.6,1.1-0.1,2.5,1,3l3.6,1.8l50.6,24.9l-1.8,3.7l-51.2-25.2
					l-3-1.5c-1.1-0.6-2.5-0.1-3,1c-0.6,1.1-0.1,2.5,1,3l2.8,1.4l51.4,25.3l-1.6,3.3l-51.2-25.2l-3-1.5c-1.1-0.6-2.5-0.1-3,1
					c-0.6,1.1-0.1,2.5,1,3l3.6,1.8l50.6,24.9l-1.8,3.7L112,401l-3-1.5c-1.1-0.6-2.5-0.1-3,1c-0.6,1.1-0.1,2.5,1,3l3.6,1.8l50.6,24.9
					l-1.8,3.7l-51.2-25.2l-3-1.5c-1.1-0.6-2.5-0.1-3,1c-0.6,1.1-0.1,2.5,1,3l2.8,1.4l51.4,25.3l-1.6,3.3l-51.2-25.2l-3-1.5
					c-1.1-0.6-2.5-0.1-3,1c-0.6,1.1-0.1,2.5,1,3l3.6,1.8l50.6,24.9l-1.8,3.7l-51.2-25.2l-3-1.5c-1.1-0.6-2.5-0.1-3,1
					c-0.6,1.1-0.1,2.5,1,3l3.6,1.8l50.6,24.9l-1.8,3.7l-51.2-25.2l-3-1.5c-1.1-0.6-2.5-0.1-3,1c-0.6,1.1-0.1,2.5,1,3l2.8,1.4
					l51.4,25.3l-1.6,3.3l-51.2-25.2l-3-1.5c-1.1-0.6-2.5-0.1-3,1c-0.6,1.1-0.1,2.5,1,3l3.6,1.8l50.6,24.9l-1.8,3.7l-51.2-25.2
					l-3-1.5c-1.1-0.6-2.5-0.1-3,1c-0.6,1.1-0.1,2.5,1,3l3.6,1.8l50.6,24.9l-1.8,3.7l-51.2-25.2l-3-1.5c-1.1-0.6-2.5-0.1-3,1
					c-0.6,1.1-0.1,2.5,1,3l2.8,1.4l51.4,25.3l-1.6,3.3L82,461.7l-3-1.5c-1.1-0.6-2.5-0.1-3,1c-0.6,1.1-0.1,2.5,1,3l3.6,1.8
					l50.6,24.9l-1.8,3.7l-51.2-25.2l-3-1.5c-1.1-0.6-2.5-0.1-3,1c-0.6,1.1-0.1,2.5,1,3l3.6,1.8l50.6,24.9l-1.8,3.7l-51.2-25.2
					l-3-1.5c-1.1-0.6-2.5-0.1-3,1c-0.6,1.1-0.1,2.5,1,3l2.8,1.4l51.4,25.3l-1.6,3.3l-51.2-25.2l-3-1.5c-1.1-0.6-2.5-0.1-3,1
					c-0.6,1.1-0.1,2.5,1,3l3.6,1.8l50.6,24.9l-1.8,3.7L67,492.3l-3-1.5c-1.1-0.6-2.5-0.1-3,1c-0.6,1.1-0.1,2.5,1,3l29.4,14.5
					l24.8,12.2l-0.7,1.5l-54.2-21.7l-2-0.8c-1.4-0.7-3-0.1-3.6,1.2c-0.7,1.4-0.1,3,1.2,3.6l67.6,33.3c0.2,0.1,0.5,0.2,0.7,0.3
					c0,0,0,0,0,0l7.5,2.7c2.8,1.4,6.1,0.8,7.9-1.1c0.3-0.3,0.6-0.7,0.8-1.1C226.2,395.1,298.2,245.5,361.5,92.5 M276.8,294.1
					c-1,2.2-2.1,4.3-3.1,6.5c11.8,8.2,24.6,16.8,36.9,23.3l7-1.5L276.8,294.1z M522.7,300.2c-20.3-15.9-46.3-16.6-58.1-1.5
					c-11.8,15.1-5,40.2,15.3,56.1c20.3,15.9,46.3,16.6,58.1,1.5C549.8,341.2,543,316.1,522.7,300.2 M300.5,296.8
					c1.5,1.6,3.4,2.9,5.7,3.7c6.9,2.3,14.4-1.5,16.7-8.5c0.7-2.3,0.8-4.6,0.4-6.7L300.5,296.8z M314.3,275.3
					c-6.9-2.3-14.4,1.5-16.7,8.5c-0.9,2.8-0.8,5.7,0,8.3l23.3-11.8C319.4,278,317.1,276.3,314.3,275.3 M400.5,411.8
					c-5.9,18.2,9.1,39.5,33.6,47.4c24.5,8,49.2-0.3,55.1-18.5c5.9-18.2-9.1-39.5-33.6-47.4C431.1,385.3,406.4,393.6,400.5,411.8
					 M552.2,367.5c-17.6,22.5-54.8,22.9-82.9,0.8c-2.8-2.2-5.4-4.5-7.7-6.9c-27.1-19.8-56.2-35-92.8-41c-2.3-4.4-14.8-19.7-20-25.9
					l-2.3,2.4l1.2,3.4c24.2,34.5,54.9,55.1,102,73.9c3.7,0.7,7.5,1.6,11.3,2.8c34,11.1,54.4,42.1,45.6,69.3
					c-8.9,27.2-43.6,40.3-77.6,29.2c-34-11.1-54.4-42.1-45.6-69.3c4-12.2,13.1-21.5,25.1-27.1c-0.1,0-0.1,0-0.1,0l-129.5-89.2
					c6.8-14.1,13.4-28.2,20-42.4c22.2,12.5,37.6,21.2,37.6,21.2l5.6,15.8l99.7,39.2c-2-13.1,0.6-25.9,8.5-36.1
					c17.6-22.5,54.8-22.9,82.9-0.8C561.3,308.9,569.9,345,552.2,367.5"/>
			</g>
		</g>
	</g>
</g>
</svg>
